<mxfile host="app.diagrams.net" modified="2022-04-06T15:44:45.847Z" agent="5.0 (Windows NT 10.0; Win64; x64) AppleWebKit/537.36 (KHTML, like Gecko) Chrome/99.0.4844.84 Safari/537.36" etag="8-dr5G91JoZnVw_-RCIE" version="17.4.0" type="github">
  <diagram id="vzRE3Hx8EvNY1ObSRGNQ" name="Page-1">
    <mxGraphModel dx="1609" dy="598" grid="1" gridSize="10" guides="1" tooltips="1" connect="1" arrows="1" fold="1" page="1" pageScale="1" pageWidth="827" pageHeight="1169" math="0" shadow="0">
      <root>
        <mxCell id="0" />
        <mxCell id="1" parent="0" />
        <mxCell id="ad76q-zCkOV_Dfmz5YMw-3" value="" style="edgeStyle=orthogonalEdgeStyle;rounded=0;orthogonalLoop=1;jettySize=auto;html=1;" edge="1" parent="1" source="ad76q-zCkOV_Dfmz5YMw-1" target="ad76q-zCkOV_Dfmz5YMw-2">
          <mxGeometry relative="1" as="geometry" />
        </mxCell>
        <mxCell id="ad76q-zCkOV_Dfmz5YMw-1" value="函数式编程思路：" style="rounded=1;whiteSpace=wrap;html=1;" vertex="1" parent="1">
          <mxGeometry x="190" y="180" width="120" height="60" as="geometry" />
        </mxCell>
        <mxCell id="ad76q-zCkOV_Dfmz5YMw-5" value="" style="edgeStyle=orthogonalEdgeStyle;rounded=0;orthogonalLoop=1;jettySize=auto;html=1;" edge="1" parent="1" source="ad76q-zCkOV_Dfmz5YMw-2" target="ad76q-zCkOV_Dfmz5YMw-4">
          <mxGeometry relative="1" as="geometry" />
        </mxCell>
        <mxCell id="ad76q-zCkOV_Dfmz5YMw-2" value="函数就是值，&lt;br&gt;值有类型" style="whiteSpace=wrap;html=1;rounded=1;" vertex="1" parent="1">
          <mxGeometry x="190" y="320" width="120" height="60" as="geometry" />
        </mxCell>
        <mxCell id="ad76q-zCkOV_Dfmz5YMw-7" value="" style="edgeStyle=orthogonalEdgeStyle;rounded=0;orthogonalLoop=1;jettySize=auto;html=1;" edge="1" parent="1" source="ad76q-zCkOV_Dfmz5YMw-4" target="ad76q-zCkOV_Dfmz5YMw-6">
          <mxGeometry relative="1" as="geometry" />
        </mxCell>
        <mxCell id="ad76q-zCkOV_Dfmz5YMw-4" value="数据为中心&lt;br&gt;泛函编程" style="whiteSpace=wrap;html=1;rounded=1;" vertex="1" parent="1">
          <mxGeometry x="190" y="460" width="120" height="60" as="geometry" />
        </mxCell>
        <mxCell id="ad76q-zCkOV_Dfmz5YMw-9" value="" style="edgeStyle=orthogonalEdgeStyle;rounded=0;orthogonalLoop=1;jettySize=auto;html=1;" edge="1" parent="1" source="ad76q-zCkOV_Dfmz5YMw-6" target="ad76q-zCkOV_Dfmz5YMw-8">
          <mxGeometry relative="1" as="geometry" />
        </mxCell>
        <mxCell id="ad76q-zCkOV_Dfmz5YMw-11" value="" style="edgeStyle=orthogonalEdgeStyle;rounded=0;orthogonalLoop=1;jettySize=auto;html=1;" edge="1" parent="1" source="ad76q-zCkOV_Dfmz5YMw-6" target="ad76q-zCkOV_Dfmz5YMw-10">
          <mxGeometry relative="1" as="geometry" />
        </mxCell>
        <mxCell id="ad76q-zCkOV_Dfmz5YMw-13" value="" style="edgeStyle=orthogonalEdgeStyle;rounded=0;orthogonalLoop=1;jettySize=auto;html=1;" edge="1" parent="1" source="ad76q-zCkOV_Dfmz5YMw-6" target="ad76q-zCkOV_Dfmz5YMw-12">
          <mxGeometry relative="1" as="geometry" />
        </mxCell>
        <mxCell id="ad76q-zCkOV_Dfmz5YMw-6" value="以pig游戏为例" style="whiteSpace=wrap;html=1;rounded=1;" vertex="1" parent="1">
          <mxGeometry x="390" y="460" width="120" height="60" as="geometry" />
        </mxCell>
        <mxCell id="ad76q-zCkOV_Dfmz5YMw-17" value="" style="edgeStyle=orthogonalEdgeStyle;rounded=0;orthogonalLoop=1;jettySize=auto;html=1;" edge="1" parent="1" source="ad76q-zCkOV_Dfmz5YMw-8" target="ad76q-zCkOV_Dfmz5YMw-16">
          <mxGeometry relative="1" as="geometry" />
        </mxCell>
        <mxCell id="ad76q-zCkOV_Dfmz5YMw-35" value="" style="edgeStyle=orthogonalEdgeStyle;rounded=0;orthogonalLoop=1;jettySize=auto;html=1;" edge="1" parent="1" source="ad76q-zCkOV_Dfmz5YMw-8" target="ad76q-zCkOV_Dfmz5YMw-34">
          <mxGeometry relative="1" as="geometry" />
        </mxCell>
        <mxCell id="ad76q-zCkOV_Dfmz5YMw-43" value="" style="edgeStyle=orthogonalEdgeStyle;rounded=0;orthogonalLoop=1;jettySize=auto;html=1;" edge="1" parent="1" source="ad76q-zCkOV_Dfmz5YMw-8" target="ad76q-zCkOV_Dfmz5YMw-42">
          <mxGeometry relative="1" as="geometry" />
        </mxCell>
        <mxCell id="ad76q-zCkOV_Dfmz5YMw-44" style="edgeStyle=orthogonalEdgeStyle;rounded=0;orthogonalLoop=1;jettySize=auto;html=1;exitX=0.75;exitY=1;exitDx=0;exitDy=0;" edge="1" parent="1" source="ad76q-zCkOV_Dfmz5YMw-8">
          <mxGeometry relative="1" as="geometry">
            <mxPoint x="690" y="790" as="targetPoint" />
          </mxGeometry>
        </mxCell>
        <mxCell id="ad76q-zCkOV_Dfmz5YMw-8" value="游戏：" style="whiteSpace=wrap;html=1;rounded=1;" vertex="1" parent="1">
          <mxGeometry x="390" y="600" width="120" height="60" as="geometry" />
        </mxCell>
        <mxCell id="ad76q-zCkOV_Dfmz5YMw-10" value="函数有类型&lt;br&gt;函数是值&lt;br&gt;函数作为参数&lt;br&gt;闭包" style="whiteSpace=wrap;html=1;rounded=1;" vertex="1" parent="1">
          <mxGeometry x="590" y="460" width="120" height="60" as="geometry" />
        </mxCell>
        <mxCell id="ad76q-zCkOV_Dfmz5YMw-15" value="" style="edgeStyle=orthogonalEdgeStyle;rounded=0;orthogonalLoop=1;jettySize=auto;html=1;" edge="1" parent="1" source="ad76q-zCkOV_Dfmz5YMw-12" target="ad76q-zCkOV_Dfmz5YMw-14">
          <mxGeometry relative="1" as="geometry" />
        </mxCell>
        <mxCell id="ad76q-zCkOV_Dfmz5YMw-12" value="获胜策略：根据当前一手得分决策是否停止投色子" style="whiteSpace=wrap;html=1;rounded=1;" vertex="1" parent="1">
          <mxGeometry x="390" y="320" width="120" height="60" as="geometry" />
        </mxCell>
        <mxCell id="ad76q-zCkOV_Dfmz5YMw-18" style="edgeStyle=orthogonalEdgeStyle;rounded=0;orthogonalLoop=1;jettySize=auto;html=1;exitX=0.25;exitY=1;exitDx=0;exitDy=0;" edge="1" parent="1" source="ad76q-zCkOV_Dfmz5YMw-14">
          <mxGeometry relative="1" as="geometry">
            <mxPoint x="610" y="400" as="targetPoint" />
          </mxGeometry>
        </mxCell>
        <mxCell id="ad76q-zCkOV_Dfmz5YMw-14" value="停止或者投色子都会输入分数，输出分数，还会发出信号决定决定本手是否终局，轮换为对手局。" style="whiteSpace=wrap;html=1;rounded=1;" vertex="1" parent="1">
          <mxGeometry x="590" y="320" width="120" height="60" as="geometry" />
        </mxCell>
        <mxCell id="ad76q-zCkOV_Dfmz5YMw-20" value="" style="edgeStyle=orthogonalEdgeStyle;rounded=0;orthogonalLoop=1;jettySize=auto;html=1;" edge="1" parent="1" source="ad76q-zCkOV_Dfmz5YMw-16" target="ad76q-zCkOV_Dfmz5YMw-19">
          <mxGeometry relative="1" as="geometry" />
        </mxCell>
        <mxCell id="ad76q-zCkOV_Dfmz5YMw-16" value="终局条件为分数 &amp;gt; 100,&lt;br&gt;-&amp;gt;&amp;nbsp;" style="whiteSpace=wrap;html=1;rounded=1;" vertex="1" parent="1">
          <mxGeometry x="390" y="740" width="120" height="60" as="geometry" />
        </mxCell>
        <mxCell id="ad76q-zCkOV_Dfmz5YMw-19" value="" style="shape=waypoint;sketch=0;size=6;pointerEvents=1;points=[];fillColor=default;resizable=0;rotatable=0;perimeter=centerPerimeter;snapToPoint=1;rounded=1;" vertex="1" parent="1">
          <mxGeometry x="430" y="890" width="40" height="40" as="geometry" />
        </mxCell>
        <mxCell id="ad76q-zCkOV_Dfmz5YMw-55" value="" style="edgeStyle=orthogonalEdgeStyle;rounded=0;orthogonalLoop=1;jettySize=auto;html=1;" edge="1" parent="1" source="ad76q-zCkOV_Dfmz5YMw-21" target="ad76q-zCkOV_Dfmz5YMw-54">
          <mxGeometry relative="1" as="geometry" />
        </mxCell>
        <mxCell id="ad76q-zCkOV_Dfmz5YMw-61" value="" style="edgeStyle=orthogonalEdgeStyle;rounded=0;orthogonalLoop=1;jettySize=auto;html=1;entryX=1;entryY=0.5;entryDx=0;entryDy=0;" edge="1" parent="1" source="ad76q-zCkOV_Dfmz5YMw-21" target="ad76q-zCkOV_Dfmz5YMw-60">
          <mxGeometry relative="1" as="geometry">
            <Array as="points">
              <mxPoint x="90" y="990" />
            </Array>
          </mxGeometry>
        </mxCell>
        <mxCell id="ad76q-zCkOV_Dfmz5YMw-21" value="" style="shape=table;startSize=0;container=1;collapsible=0;childLayout=tableLayout;" vertex="1" parent="1">
          <mxGeometry x="270" y="710" width="340" height="320" as="geometry" />
        </mxCell>
        <mxCell id="ad76q-zCkOV_Dfmz5YMw-22" value="" style="shape=tableRow;horizontal=0;startSize=0;swimlaneHead=0;swimlaneBody=0;top=0;left=0;bottom=0;right=0;collapsible=0;dropTarget=0;fillColor=none;points=[[0,0.5],[1,0.5]];portConstraint=eastwest;" vertex="1" parent="ad76q-zCkOV_Dfmz5YMw-21">
          <mxGeometry width="340" height="90" as="geometry" />
        </mxCell>
        <mxCell id="ad76q-zCkOV_Dfmz5YMw-23" value="类型\函数" style="shape=partialRectangle;html=1;whiteSpace=wrap;connectable=0;overflow=hidden;fillColor=none;top=0;left=0;bottom=0;right=0;pointerEvents=1;" vertex="1" parent="ad76q-zCkOV_Dfmz5YMw-22">
          <mxGeometry width="114" height="90" as="geometry">
            <mxRectangle width="114" height="90" as="alternateBounds" />
          </mxGeometry>
        </mxCell>
        <mxCell id="ad76q-zCkOV_Dfmz5YMw-24" value="回测" style="shape=partialRectangle;html=1;whiteSpace=wrap;connectable=0;overflow=hidden;fillColor=none;top=0;left=0;bottom=0;right=0;pointerEvents=1;" vertex="1" parent="ad76q-zCkOV_Dfmz5YMw-22">
          <mxGeometry x="114" width="112" height="90" as="geometry">
            <mxRectangle width="112" height="90" as="alternateBounds" />
          </mxGeometry>
        </mxCell>
        <mxCell id="ad76q-zCkOV_Dfmz5YMw-25" value="测试胜率" style="shape=partialRectangle;html=1;whiteSpace=wrap;connectable=0;overflow=hidden;fillColor=none;top=0;left=0;bottom=0;right=0;pointerEvents=1;" vertex="1" parent="ad76q-zCkOV_Dfmz5YMw-22">
          <mxGeometry x="226" width="114" height="90" as="geometry">
            <mxRectangle width="114" height="90" as="alternateBounds" />
          </mxGeometry>
        </mxCell>
        <mxCell id="ad76q-zCkOV_Dfmz5YMw-56" value="" style="shape=tableRow;horizontal=0;startSize=0;swimlaneHead=0;swimlaneBody=0;top=0;left=0;bottom=0;right=0;collapsible=0;dropTarget=0;fillColor=none;points=[[0,0.5],[1,0.5]];portConstraint=eastwest;" vertex="1" parent="ad76q-zCkOV_Dfmz5YMw-21">
          <mxGeometry y="90" width="340" height="30" as="geometry" />
        </mxCell>
        <mxCell id="ad76q-zCkOV_Dfmz5YMw-57" value="" style="shape=partialRectangle;html=1;whiteSpace=wrap;connectable=0;overflow=hidden;fillColor=none;top=0;left=0;bottom=0;right=0;pointerEvents=1;" vertex="1" parent="ad76q-zCkOV_Dfmz5YMw-56">
          <mxGeometry width="114" height="30" as="geometry">
            <mxRectangle width="114" height="30" as="alternateBounds" />
          </mxGeometry>
        </mxCell>
        <mxCell id="ad76q-zCkOV_Dfmz5YMw-58" value="" style="shape=partialRectangle;html=1;whiteSpace=wrap;connectable=0;overflow=hidden;fillColor=none;top=0;left=0;bottom=0;right=0;pointerEvents=1;" vertex="1" parent="ad76q-zCkOV_Dfmz5YMw-56">
          <mxGeometry x="114" width="112" height="30" as="geometry">
            <mxRectangle width="112" height="30" as="alternateBounds" />
          </mxGeometry>
        </mxCell>
        <mxCell id="ad76q-zCkOV_Dfmz5YMw-59" value="" style="shape=partialRectangle;html=1;whiteSpace=wrap;connectable=0;overflow=hidden;fillColor=none;top=0;left=0;bottom=0;right=0;pointerEvents=1;" vertex="1" parent="ad76q-zCkOV_Dfmz5YMw-56">
          <mxGeometry x="226" width="114" height="30" as="geometry">
            <mxRectangle width="114" height="30" as="alternateBounds" />
          </mxGeometry>
        </mxCell>
        <mxCell id="ad76q-zCkOV_Dfmz5YMw-46" value="" style="shape=tableRow;horizontal=0;startSize=0;swimlaneHead=0;swimlaneBody=0;top=0;left=0;bottom=0;right=0;collapsible=0;dropTarget=0;fillColor=none;points=[[0,0.5],[1,0.5]];portConstraint=eastwest;" vertex="1" parent="ad76q-zCkOV_Dfmz5YMw-21">
          <mxGeometry y="120" width="340" height="20" as="geometry" />
        </mxCell>
        <mxCell id="ad76q-zCkOV_Dfmz5YMw-47" value="" style="shape=partialRectangle;html=1;whiteSpace=wrap;connectable=0;overflow=hidden;fillColor=none;top=0;left=0;bottom=0;right=0;pointerEvents=1;" vertex="1" parent="ad76q-zCkOV_Dfmz5YMw-46">
          <mxGeometry width="114" height="20" as="geometry">
            <mxRectangle width="114" height="20" as="alternateBounds" />
          </mxGeometry>
        </mxCell>
        <mxCell id="ad76q-zCkOV_Dfmz5YMw-48" value="" style="shape=partialRectangle;html=1;whiteSpace=wrap;connectable=0;overflow=hidden;fillColor=none;top=0;left=0;bottom=0;right=0;pointerEvents=1;" vertex="1" parent="ad76q-zCkOV_Dfmz5YMw-46">
          <mxGeometry x="114" width="112" height="20" as="geometry">
            <mxRectangle width="112" height="20" as="alternateBounds" />
          </mxGeometry>
        </mxCell>
        <mxCell id="ad76q-zCkOV_Dfmz5YMw-49" value="" style="shape=partialRectangle;html=1;whiteSpace=wrap;connectable=0;overflow=hidden;fillColor=none;top=0;left=0;bottom=0;right=0;pointerEvents=1;" vertex="1" parent="ad76q-zCkOV_Dfmz5YMw-46">
          <mxGeometry x="226" width="114" height="20" as="geometry">
            <mxRectangle width="114" height="20" as="alternateBounds" />
          </mxGeometry>
        </mxCell>
        <mxCell id="ad76q-zCkOV_Dfmz5YMw-50" value="" style="shape=tableRow;horizontal=0;startSize=0;swimlaneHead=0;swimlaneBody=0;top=0;left=0;bottom=0;right=0;collapsible=0;dropTarget=0;fillColor=none;points=[[0,0.5],[1,0.5]];portConstraint=eastwest;" vertex="1" parent="ad76q-zCkOV_Dfmz5YMw-21">
          <mxGeometry y="140" width="340" height="90" as="geometry" />
        </mxCell>
        <mxCell id="ad76q-zCkOV_Dfmz5YMw-51" value="动作" style="shape=partialRectangle;html=1;whiteSpace=wrap;connectable=0;overflow=hidden;fillColor=none;top=0;left=0;bottom=0;right=0;pointerEvents=1;" vertex="1" parent="ad76q-zCkOV_Dfmz5YMw-50">
          <mxGeometry width="114" height="90" as="geometry">
            <mxRectangle width="114" height="90" as="alternateBounds" />
          </mxGeometry>
        </mxCell>
        <mxCell id="ad76q-zCkOV_Dfmz5YMw-52" value="投骰子" style="shape=partialRectangle;html=1;whiteSpace=wrap;connectable=0;overflow=hidden;fillColor=none;top=0;left=0;bottom=0;right=0;pointerEvents=1;" vertex="1" parent="ad76q-zCkOV_Dfmz5YMw-50">
          <mxGeometry x="114" width="112" height="90" as="geometry">
            <mxRectangle width="112" height="90" as="alternateBounds" />
          </mxGeometry>
        </mxCell>
        <mxCell id="ad76q-zCkOV_Dfmz5YMw-53" value="停止" style="shape=partialRectangle;html=1;whiteSpace=wrap;connectable=0;overflow=hidden;fillColor=none;top=0;left=0;bottom=0;right=0;pointerEvents=1;" vertex="1" parent="ad76q-zCkOV_Dfmz5YMw-50">
          <mxGeometry x="226" width="114" height="90" as="geometry">
            <mxRectangle width="114" height="90" as="alternateBounds" />
          </mxGeometry>
        </mxCell>
        <mxCell id="ad76q-zCkOV_Dfmz5YMw-30" value="" style="shape=tableRow;horizontal=0;startSize=0;swimlaneHead=0;swimlaneBody=0;top=0;left=0;bottom=0;right=0;collapsible=0;dropTarget=0;fillColor=none;points=[[0,0.5],[1,0.5]];portConstraint=eastwest;" vertex="1" parent="ad76q-zCkOV_Dfmz5YMw-21">
          <mxGeometry y="230" width="340" height="90" as="geometry" />
        </mxCell>
        <mxCell id="ad76q-zCkOV_Dfmz5YMw-31" value="策略" style="shape=partialRectangle;html=1;whiteSpace=wrap;connectable=0;overflow=hidden;fillColor=none;top=0;left=0;bottom=0;right=0;pointerEvents=1;" vertex="1" parent="ad76q-zCkOV_Dfmz5YMw-30">
          <mxGeometry width="114" height="90" as="geometry">
            <mxRectangle width="114" height="90" as="alternateBounds" />
          </mxGeometry>
        </mxCell>
        <mxCell id="ad76q-zCkOV_Dfmz5YMw-32" value="最多投K点" style="shape=partialRectangle;html=1;whiteSpace=wrap;connectable=0;overflow=hidden;fillColor=none;top=0;left=0;bottom=0;right=0;pointerEvents=1;" vertex="1" parent="ad76q-zCkOV_Dfmz5YMw-30">
          <mxGeometry x="114" width="112" height="90" as="geometry">
            <mxRectangle width="112" height="90" as="alternateBounds" />
          </mxGeometry>
        </mxCell>
        <mxCell id="ad76q-zCkOV_Dfmz5YMw-33" value="游戏" style="shape=partialRectangle;html=1;whiteSpace=wrap;connectable=0;overflow=hidden;fillColor=none;top=0;left=0;bottom=0;right=0;pointerEvents=1;" vertex="1" parent="ad76q-zCkOV_Dfmz5YMw-30">
          <mxGeometry x="226" width="114" height="90" as="geometry">
            <mxRectangle width="114" height="90" as="alternateBounds" />
          </mxGeometry>
        </mxCell>
        <mxCell id="ad76q-zCkOV_Dfmz5YMw-37" value="" style="edgeStyle=orthogonalEdgeStyle;rounded=0;orthogonalLoop=1;jettySize=auto;html=1;" edge="1" parent="1" source="ad76q-zCkOV_Dfmz5YMw-34" target="ad76q-zCkOV_Dfmz5YMw-36">
          <mxGeometry relative="1" as="geometry" />
        </mxCell>
        <mxCell id="ad76q-zCkOV_Dfmz5YMw-39" value="" style="edgeStyle=orthogonalEdgeStyle;rounded=0;orthogonalLoop=1;jettySize=auto;html=1;" edge="1" parent="1" source="ad76q-zCkOV_Dfmz5YMw-34" target="ad76q-zCkOV_Dfmz5YMw-38">
          <mxGeometry relative="1" as="geometry" />
        </mxCell>
        <mxCell id="ad76q-zCkOV_Dfmz5YMw-41" value="" style="edgeStyle=orthogonalEdgeStyle;rounded=0;orthogonalLoop=1;jettySize=auto;html=1;" edge="1" parent="1" source="ad76q-zCkOV_Dfmz5YMw-34" target="ad76q-zCkOV_Dfmz5YMw-40">
          <mxGeometry relative="1" as="geometry" />
        </mxCell>
        <mxCell id="ad76q-zCkOV_Dfmz5YMw-34" value="数据流：得分" style="whiteSpace=wrap;html=1;rounded=1;" vertex="1" parent="1">
          <mxGeometry x="190" y="600" width="120" height="60" as="geometry" />
        </mxCell>
        <mxCell id="ad76q-zCkOV_Dfmz5YMw-36" value="玩家得分&lt;br&gt;对手得分&lt;br&gt;本轮得分" style="whiteSpace=wrap;html=1;rounded=1;" vertex="1" parent="1">
          <mxGeometry x="-10" y="600" width="120" height="60" as="geometry" />
        </mxCell>
        <mxCell id="ad76q-zCkOV_Dfmz5YMw-38" value="信号流：本轮结束与否" style="ellipse;whiteSpace=wrap;html=1;rounded=1;" vertex="1" parent="1">
          <mxGeometry x="120" y="720" width="120" height="60" as="geometry" />
        </mxCell>
        <mxCell id="ad76q-zCkOV_Dfmz5YMw-40" value="常量信号：&lt;br&gt;得分100&lt;br&gt;回测轮次&lt;br&gt;" style="ellipse;whiteSpace=wrap;html=1;rounded=1;" vertex="1" parent="1">
          <mxGeometry x="70" y="500" width="120" height="60" as="geometry" />
        </mxCell>
        <mxCell id="ad76q-zCkOV_Dfmz5YMw-42" value="左侧是类型驱动编程" style="ellipse;whiteSpace=wrap;html=1;rounded=1;" vertex="1" parent="1">
          <mxGeometry x="590" y="600" width="120" height="60" as="geometry" />
        </mxCell>
        <mxCell id="ad76q-zCkOV_Dfmz5YMw-45" value="左侧是函数驱动编程" style="rounded=1;whiteSpace=wrap;html=1;" vertex="1" parent="1">
          <mxGeometry x="630" y="790" width="120" height="60" as="geometry" />
        </mxCell>
        <mxCell id="ad76q-zCkOV_Dfmz5YMw-54" value="type action func(s source) (result source, end bool)&amp;nbsp;" style="whiteSpace=wrap;html=1;startSize=0;" vertex="1" parent="1">
          <mxGeometry x="-90" y="840" width="240" height="60" as="geometry" />
        </mxCell>
        <mxCell id="ad76q-zCkOV_Dfmz5YMw-60" value="type 策略 func(s source) action" style="whiteSpace=wrap;html=1;startSize=0;" vertex="1" parent="1">
          <mxGeometry x="-90" y="950" width="180" height="60" as="geometry" />
        </mxCell>
      </root>
    </mxGraphModel>
  </diagram>
</mxfile>
